<?xml version="1.0" encoding="utf-8"?>
<!-- Generator: Adobe Illustrator 27.0.0, SVG Export Plug-In . SVG Version: 6.00 Build 0)  -->
<svg version="1.1" id="Layer_1" xmlns="http://www.w3.org/2000/svg" xmlns:xlink="http://www.w3.org/1999/xlink" x="0px" y="0px"
	 viewBox="0 0 300 82" style="enable-background:new 0 0 300 82;" xml:space="preserve">
<style type="text/css">
	.st0{fill:#006A87;}
	.st1{fill:#FF6E30;}
</style>
<path class="st0" d="M105.9,67.8c-4.1,0-7.7-0.9-10.9-2.7c-3.1-1.8-5.6-4.5-7.4-8.1s-2.7-8-2.7-13.3c0-5.4,0.9-9.9,2.7-13.4
	c1.8-3.5,4.2-6.2,7.4-7.9c3.1-1.7,6.8-2.6,10.9-2.6s7.8,0.9,10.9,2.7c3.1,1.8,5.6,4.5,7.4,8c1.8,3.6,2.7,8,2.7,13.3
	c0,5.4-0.9,9.9-2.7,13.4c-1.8,3.6-4.2,6.2-7.4,8C113.7,66.9,110.1,67.8,105.9,67.8z M105.9,60.2c3.8,0,6.8-1.4,9-4.3
	c2.2-2.8,3.3-6.9,3.3-12.3c0-5.2-1.1-9.2-3.3-12c-2.2-2.9-5.2-4.3-9-4.3c-3.7,0-6.7,1.4-8.9,4.3c-2.2,2.9-3.3,6.9-3.3,12.1
	c0,5.3,1.1,9.4,3.3,12.2C99.3,58.8,102.2,60.2,105.9,60.2z M156.1,32.1l-0.1,8.4c-0.6-0.1-1.3-0.3-2-0.4c-0.7-0.1-1.4-0.1-1.9-0.1
	c-1.8,0-3.4,0.4-4.6,1.3c-1.2,0.9-2.2,2.2-2.8,3.9s-0.9,3.9-0.9,6.4v15.1h-8.4V32.2h8.4v6.9c0.9-2.3,2.1-4,3.6-5.2
	c1.7-1.4,3.6-2.2,5.7-2.2c0.6,0,1.1,0,1.6,0.1C155.1,31.9,155.6,32,156.1,32.1z M192.9,39.9c-1.4-2.7-3.2-4.8-5.5-6.3
	s-4.8-2.2-7.6-2.2c-2.6,0-4.8,0.6-6.6,1.8c-1.3,0.8-2.4,2-3.3,3.4V18.1h-8.4v48.8h5.5l2.1-6c1.1,2.3,2.4,4,4.2,5.2s3.8,1.8,5.9,1.8
	c2.9,0,5.6-0.8,8-2.3s4.3-3.7,5.7-6.4c1.4-2.8,2.1-6,2.1-9.7C194.9,45.8,194.2,42.6,192.9,39.9z M185.3,55.1c-0.7,1.6-1.8,2.9-3,3.8
	c-1.3,0.9-2.7,1.3-4.4,1.3c-1.3,0-2.6-0.4-3.8-1.1c-1.2-0.7-2.2-1.7-3-3s-1.2-2.8-1.2-4.6v-4.1c0-1.8,0.4-3.3,1.1-4.6
	s1.7-2.2,2.9-2.9s2.5-1,3.9-1c1.7,0,3.2,0.4,4.5,1.3c1.3,0.9,2.3,2.1,3,3.7c0.7,1.6,1.1,3.4,1.1,5.5
	C186.5,51.6,186.1,53.5,185.3,55.1z M208.5,26c-1.6,0-2.9-0.4-3.8-1.3c-0.9-0.9-1.4-2.1-1.4-3.6s0.5-2.7,1.4-3.6s2.2-1.3,3.8-1.3
	s2.9,0.4,3.8,1.3c0.9,0.9,1.4,2.1,1.4,3.6s-0.5,2.7-1.4,3.6C211.4,25.6,210.1,26,208.5,26z M204.3,66.8V32.2h8.4v34.6H204.3z
	 M244.7,66c-1.3,0.5-2.6,1-3.9,1.3c-1.3,0.4-2.6,0.5-3.9,0.5c-2,0-3.9-0.4-5.6-1.1c-1.7-0.8-3-1.9-4.1-3.5c-1-1.6-1.5-3.6-1.5-6
	V37.9h-4.8v-5.5h4.8v-9.2h8.4v9.2h9.4v5.5h-9.4v19c0,2.8,1.4,4.3,4,4.3c0.8,0,1.7-0.1,2.5-0.3s1.8-0.5,2.8-0.9L244.7,66z M279,37.2
	c-1.2-2-3-3.5-5.2-4.4s-4.8-1.4-7.8-1.4c-3.3,0-6.1,0.4-8.5,1.2s-4.2,2-5.4,3.6c-1.3,1.6-1.9,3.8-1.9,6.4h9.2c0-1.1,0.3-2,0.8-2.7
	s1.3-1.3,2.3-1.7s2.2-0.6,3.5-0.6c2.3,0,4,0.6,5,1.7c1,1.2,1.5,2.9,1.5,5.4v3.6c-1.4-0.4-2.8-0.7-4.2-0.9c-1.7-0.3-3.4-0.4-5.3-0.4
	c-2.9,0-5.4,0.4-7.5,1.1c-2.1,0.7-3.7,1.9-4.9,3.3c-1.2,1.5-1.7,3.3-1.7,5.5c0,2,0.5,3.8,1.5,5.5c1,1.7,2.5,3,4.5,4.1
	c2,1,4.4,1.5,7.4,1.5c2.7,0,4.9-0.6,6.7-1.9c1.7-1.2,3-2.7,3.9-4.6l0.7,5.5h7.3V45C280.9,41.8,280.2,39.2,279,37.2z M268.8,60.3
	c-1.2,0.8-2.7,1.1-4.4,1.1c-2.3,0-3.9-0.5-5-1.4c-1-0.9-1.6-2-1.6-3.3c0-1.8,0.6-3,1.9-3.7s2.9-1.1,4.9-1.1c1.3,0,2.8,0.1,4.3,0.4
	c1.2,0.2,2.4,0.5,3.5,0.8v1c0,1.1-0.3,2.3-0.9,3.4C270.9,58.6,270,59.5,268.8,60.3z M291.6,66.8V18.1h8.4v48.8L291.6,66.8
	L291.6,66.8z"/>
<path class="st1" d="M0,27.3V82l47.3-27.3V0L0,27.3z M31.6,45.6l-15.8,9.1V36.4l15.8-9.1V45.6z"/>
</svg>
